PathFileType	4	(X/Y/Z)	./resultDataOpenSim/trcMotMarkerGrf/sub10/qtm-05-08.trc
DataRate	CameraRate	NumFrames	NumMarkers	Units	OrigDataRate	OrigDataStartFrame	OrigNumFrames
250.000000	250.000000	10	24	m	250.000000	265	529
Frame#	Time	L.Toe.Tip			R.Toe.Tip			L.Ankle.Lat			R.Ankle.Lat			L.Ankle.Med			R.Ankle.Med			L.Heel			R.Heel			L.Knee.Lat			R.Knee.Lat			L.Knee.Med			R.Knee.Med			L.Thigh.Upper			R.Thigh.Upper			L.ASIS			R.ASIS			V.Sacral			L.Acromium			R.Acromium			C7			L.Elbow			R.Elbow			L.Wrist.Lat			R.Wrist.Lat
		X1	Y1	Z1	X2	Y2	Z2	X3	Y3	Z3	X4	Y4	Z4	X5	Y5	Z5	X6	Y6	Z6	X7	Y7	Z7	X8	Y8	Z8	X9	Y9	Z9	X10	Y10	Z10	X11	Y11	Z11	X12	Y12	Z12	X13	Y13	Z13	X14	Y14	Z14	X15	Y15	Z15	X16	Y16	Z16	X17	Y17	Z17	X18	Y18	Z18	X19	Y19	Z19	X20	Y20	Z20	X21	Y21	Z21	X22	Y22	Z22	X23	Y23	Z23	X24	Y24	Z24

265	1.056	0.037182769	-0.056703629	-0.097455683	0.11316609	0.090899212	0.077725127	-0.086531203	-0.003590888	-0.14811305	0.00031699217	0.17615106	0.060110656	-0.081155726	0.022970429	-0.066542852	0.058070025	0.1740651	-0.0082586285	-0.1559965	-0.015244378	-0.10812253	-0.04024023	0.16818532	-0.00051383611	0.014197572	0.37685896	-0.1767773	0.24507879	0.4649137	0.11707077	0.014030883	0.35317827	-0.054942092	0.29377039	0.46936602	-0.0080672198	0.048185586	0.77043347	-0.22656764	0.034304602	0.79984592	0.1523585	0.11351351	0.87326402	-0.15893816	0.10465703	0.88998709	0.080038601	-0.087684662	0.91024952	-0.042686941	0.088564778	1.3432972	-0.21460755	0.040051554	1.3683477	0.10474172	-0.016220955	1.3840047	-0.078089821	0.090674606	0.9971168	-0.27606601	-0.080287267	1.0426442	0.13268047	0.30101247	0.86642447	-0.26196224	-0.0092556466	0.82397634	0.21796129
266	1.06	0.037334142	-0.056667272	-0.097575517	0.13338422	0.09021716	0.077756884	-0.086274974	-0.0029672688	-0.14805829	0.017882001	0.17158955	0.059880647	-0.080769791	0.023543318	-0.066628693	0.075557848	0.1711167	-0.0086492156	-0.15572026	-0.014404334	-0.10806772	-0.022402934	0.16229021	-0.00066483669	0.014156945	0.37753234	-0.17678508	0.25448961	0.46825185	0.11643338	0.014806816	0.35377201	-0.055054959	0.30246374	0.47377708	-0.0085649976	0.050452771	0.77124255	-0.22663062	0.041327143	0.80163017	0.1527023	0.11644045	0.87386041	-0.16006866	0.11002758	0.89101922	0.079286603	-0.083096698	0.91138438	-0.041556015	0.093878604	1.3441567	-0.21437468	0.045677354	1.3690687	0.10484457	-0.010545543	1.3848308	-0.07799428	0.098712383	0.99798687	-0.27695632	-0.07680871	1.0443763	0.13272623	0.3112781	0.87078494	-0.25989219	-0.0086749216	0.8254022	0.21893362
267	1.064	0.037459592	-0.056646015	-0.097661421	0.15365991	0.089631014	0.077805486	-0.08611782	-0.002396244	-0.14784909	0.035547806	0.16708272	0.059740776	-0.080591901	0.024069253	-0.066732309	0.093211133	0.16819919	-0.0090141909	-0.15553077	-0.013548748	-0.10799743	-0.0041029301	0.15637595	-0.00094551752	0.013780428	0.37802663	-0.17644969	0.26375616	0.47145554	0.11578936	0.015412284	0.35433851	-0.055086982	0.31095072	0.47804662	-0.0090705429	0.05270691	0.77197853	-0.22662852	0.048475464	0.80336161	0.15310852	0.11946507	0.87440824	-0.16112397	0.11538966	0.89194938	0.078538849	-0.078548004	0.91232466	-0.040715494	0.099176966	1.3449489	-0.21414257	0.051332565	1.3696936	0.10494242	-0.0047839772	1.3855251	-0.078049518	0.10663605	0.99882178	-0.27786847	-0.073290756	1.0460208	0.13291262	0.32145226	0.87511553	-0.25781824	-0.0080365631	0.82677914	0.21991471
268	1.068	0.037496706	-0.056643203	-0.09765338	0.17402346	0.089103113	0.077841835	-0.086076029	-0.001865672	-0.14748059	0.053272555	0.16264596	0.05971977	-0.080565663	0.024579651	-0.066792317	0.11100158	0.16534427	-0.0093044789	-0.15544531	-0.012650146	-0.10789328	0.014656005	0.15041236	-0.0013926927	0.01334752	0.37836878	-0.17594205	0.27286184	0.47449643	0.11515589	0.015945431	0.35486528	-0.055101716	0.3192551	0.48217243	-0.0095963198	0.05497248	0.77260148	-0.22666234	0.055697871	0.80503161	0.15355221	0.12269986	0.87494234	-0.16203011	0.12074439	0.89277653	0.077789055	-0.074008096	0.91311119	-0.039999548	0.1044443	1.3456732	-0.21390139	0.056989331	1.370222	0.10505107	0.00095637028	1.3860822	-0.078040293	0.11448806	0.99959448	-0.27862701	-0.069822236	1.0475839	0.13313592	0.33147099	0.87939621	-0.25579396	-0.0073317104	0.82810101	0.22089428
269	1.072	0.037451519	-0.056651786	-0.097559715	0.19443992	0.088627507	0.077867166	-0.086112348	-0.0013548571	-0.14702625	0.07109153	0.15826136	0.059768628	-0.080472691	0.02512749	-0.066698846	0.12890853	0.1625614	-0.0095369882	-0.15542091	-0.01174384	-0.10773243	0.033737902	0.14442024	-0.001942542	0.013204096	0.37864476	-0.17551813	0.28178824	0.47735214	0.11455907	0.016584541	0.35530802	-0.05516883	0.3273962	0.48614611	-0.010142574	0.057239064	0.77308995	-0.22681826	0.062768492	0.80658459	0.15391422	0.12603155	0.87541477	-0.16286214	0.12609665	0.89349712	0.077037849	-0.069468857	0.91378381	-0.039172542	0.10968392	1.34632	-0.21365148	0.062642195	1.3706489	0.10517905	0.0065849224	1.3865216	-0.07779257	0.12235819	1.0003194	-0.27921365	-0.066442721	1.0490654	0.1332716	0.34129204	0.88361057	-0.25385582	-0.0065644987	0.82937145	0.22187045
270	1.076	0.037400679	-0.056659719	-0.097456318	0.21484359	0.088217342	0.077896888	-0.086169862	-0.00085272099	-0.14657458	0.089096291	0.15389238	0.059760487	-0.080115174	0.025715222	-0.066396127	0.14691548	0.15983356	-0.0097712163	-0.15537567	-0.010915865	-0.10748854	0.052930071	0.13849635	-0.0024796011	0.013426883	0.3789003	-0.17526066	0.29053761	0.48001893	0.11400441	0.017362683	0.35563107	-0.055247124	0.33537622	0.48995398	-0.010696574	0.059502951	0.77343559	-0.22706577	0.069639247	0.8080036	0.15416256	0.12925134	0.87573879	-0.16375929	0.13144896	0.89410635	0.076289587	-0.064932599	0.9143461	-0.038069519	0.11491876	1.3468757	-0.21340638	0.06830024	1.3709659	0.1053237	0.012109623	1.3868688	-0.077338938	0.13028223	1.0010044	-0.27966904	-0.063125899	1.0504636	0.13329317	0.35097068	0.8877701	-0.25196821	-0.0057127825	0.83059395	0.22286613
271	1.08	0.037389462	-0.05666491	-0.097383037	0.23519325	0.087887408	0.0779317	-0.086252352	-0.00035246651	-0.14611483	0.10733573	0.14952115	0.059645038	-0.079541872	0.026264315	-0.065968858	0.16499555	0.15713751	-0.010038655	-0.15526262	-0.010221664	-0.10714041	0.072074086	0.13275887	-0.0029269821	0.013855558	0.37912127	-0.17508653	0.29914367	0.48251423	0.11344287	0.018091852	0.35583781	-0.05517145	0.34316796	0.49357986	-0.011248712	0.061787089	0.77364128	-0.22729249	0.076469147	0.80932001	0.15437791	0.13230874	0.87589841	-0.16475321	0.13679931	0.89460272	0.075547326	-0.060397532	0.91476861	-0.036697638	0.12017088	1.347334	-0.21318208	0.073969766	1.3711674	0.10547816	0.017599228	1.387134	-0.076839367	0.13823883	1.0016414	-0.28005507	-0.059820883	1.0517741	0.13326173	0.36061013	0.89190546	-0.25005808	-0.0047735872	0.83176233	0.2238945
272	1.084	0.037383501	-0.056678961	-0.097299031	0.25547421	0.087658638	0.077952037	-0.086374022	0.00014865823	-0.14558888	0.12575419	0.14517131	0.059545632	-0.078969459	0.02669501	-0.065541323	0.1831239	0.15446699	-0.010320857	-0.15510018	-0.0096474718	-0.10668303	0.091154376	0.12726922	-0.0033046041	0.014332414	0.37928274	-0.17490095	0.30764435	0.48486758	0.11279667	0.018577453	0.35594562	-0.054800946	0.35073435	0.49700631	-0.011801534	0.064118717	0.77374144	-0.22742374	0.083251046	0.81053135	0.15456316	0.13538616	0.87598542	-0.16571228	0.14214724	0.89499019	0.074809782	-0.055876606	0.91501227	-0.035197919	0.12544314	1.3476997	-0.21298477	0.079651762	1.371258	0.10563317	0.023106735	1.3873113	-0.076414055	0.14621338	1.0022291	-0.28038793	-0.056493377	1.0529929	0.13324067	0.37023706	0.89602342	-0.24809817	-0.003788686	0.83286998	0.22494143
273	1.088	0.037321411	-0.056713235	-0.097140616	0.27568615	0.08754327	0.07792202	-0.086457548	0.00062529243	-0.14502029	0.14426602	0.14089724	0.059574419	-0.078532652	0.027002795	-0.065130534	0.20129037	0.15184154	-0.010591269	-0.15493568	-0.009149989	-0.10613211	0.11025493	0.12201204	-0.0036790189	0.014797721	0.37937699	-0.17465553	0.31604073	0.48708894	0.11203993	0.018791959	0.3559612	-0.054129546	0.35806311	0.50021316	-0.012362135	0.066520374	0.7738038	-0.2274673	0.089812988	0.81160583	0.15463351	0.1386816	0.87608702	-0.16649331	0.14749392	0.89527488	0.074071765	-0.051419758	0.91507125	-0.033758911	0.13072323	1.3479788	-0.2128085	0.085347118	1.3712465	0.10577818	0.028644515	1.3873881	-0.076081111	0.15422222	1.0027794	-0.28062584	-0.053129915	1.0541201	0.13325464	0.37979576	0.90009832	-0.24611459	-0.0027823424	0.83392151	0.22600034
274	1.092	0.037203671	-0.056755244	-0.09691624	0.29585213	0.087515416	0.07779565	-0.086410248	0.0010320101	-0.14448684	0.16286132	0.13673633	0.059667648	-0.078243058	0.027243774	-0.064651526	0.21948513	0.14930365	-0.010834785	-0.1548027	-0.008698284	-0.10551402	0.12943266	0.11693318	-0.004024603	0.015249014	0.37940969	-0.17433779	0.32429559	0.48914213	0.11123347	0.018862981	0.35590156	-0.053295459	0.36517387	0.50317572	-0.012930077	0.069002601	0.7738574	-0.22745745	0.096144789	0.81255151	0.15458426	0.14216283	0.87617642	-0.16712136	0.1528357	0.89546254	0.073329542	-0.047114561	0.91501814	-0.032593846	0.1359943	1.348168	-0.21263945	0.091058664	1.3711339	0.10590992	0.034204921	1.3873574	-0.07579829	0.1622825	1.0032927	-0.28073166	-0.049726838	1.0551575	0.1333009	0.38924774	0.90411042	-0.24413704	-0.0017353165	0.83492091	0.22707978
